# xmcd
#
# Track frame offsets:
#	150
#	14615
#	28515
#	44776
#	58776
#	76727
#	92629
#	108133
#	122348
#	136077
#	151220
#	165642
#	181983
#
# Disc length: 2624 seconds
#
# Revision: 1
# Processed by: cddbd v1.5.2PL0 Copyright (c) Steve Scherf et al.
# Submitted via: audiograbber 1.83.01
#
DISCID=990a3e0d
DTITLE=Stevie Cee - Lucky In Love Stevie Cee
DYEAR=2002
DGENRE=Country
TTITLE0=Heaven´s Gain
TTITLE1=Lucky In Love
TTITLE2=I Love That Man Gal Of Mine
TTITLE3=Neat Little Package
TTITLE4=Different Women
TTITLE5=Don´t Tuch Me
TTITLE6=You Gotta Love Em
TTITLE7=Pure Country Girl
TTITLE8=Hold That Thought
TTITLE9=Victoria´s Got A Secret
TTITLE10=Your Loving Man
TTITLE11=Tender Lips
TTITLE12=Long Time No See
EXTD=
EXTT0=
EXTT1=
EXTT2=
EXTT3=
EXTT4=
EXTT5=
EXTT6=
EXTT7=
EXTT8=
EXTT9=
EXTT10=
EXTT11=
EXTT12=
PLAYORDER=
